HIERARCHY
ROOT root
{
	OFFSET 0.000000 0.000000 0.000000
	CHANNELS 6 Xposition Yposition Zposition Zrotation Yrotation Xrotation
	JOINT lhip
	{
		OFFSET 0.058581 -0.082280 -0.017664
		CHANNELS 3 Zrotation Yrotation Xrotation
		JOINT lknee
		{
			OFFSET 0.043451 -0.386469 0.008037
			CHANNELS 3 Zrotation Yrotation Xrotation
			JOINT lankle
			{
				OFFSET -0.014790 -0.426874 -0.037428
				CHANNELS 3 Zrotation Yrotation Xrotation
				JOINT ltoe
				{
					OFFSET 0.041054 -0.060286 0.122042
					CHANNELS 3 Zrotation Yrotation Xrotation
					End Site
					{
						OFFSET 0.000000 0.000000 0.000000
					}
				}
			}
		}
	}
	JOINT rhip
	{
		OFFSET -0.060310 -0.090513 -0.013543
		CHANNELS 3 Zrotation Yrotation Xrotation
		JOINT rknee
		{
			OFFSET -0.043257 -0.383688 -0.004843
			CHANNELS 3 Zrotation Yrotation Xrotation
			JOINT rankle
			{
				OFFSET 0.019056 -0.420046 -0.034562
				CHANNELS 3 Zrotation Yrotation Xrotation
				JOINT rtoe
				{
					OFFSET -0.034840 -0.062106 0.130323
					CHANNELS 3 Zrotation Yrotation Xrotation
					End Site
					{
						OFFSET 0.000000 0.000000 0.000000
					}
				}
			}
		}
	}
	JOINT lowerback
	{
		OFFSET 0.004439 0.124404 -0.038385
		CHANNELS 3 Zrotation Yrotation Xrotation
		JOINT upperback
		{
			OFFSET 0.004488 0.137956 0.026820
			CHANNELS 3 Zrotation Yrotation Xrotation
			JOINT chest
			{
				OFFSET -0.002265 0.056032 0.002855
				CHANNELS 3 Zrotation Yrotation Xrotation
				JOINT lowerneck
				{
					OFFSET -0.013390 0.211636 -0.033468
					CHANNELS 3 Zrotation Yrotation Xrotation
					JOINT upperneck
					{
						OFFSET 0.010113 0.088937 0.050410
						CHANNELS 3 Zrotation Yrotation Xrotation
						End Site
						{
							OFFSET 0.000000 0.000000 0.000000
						}
					}
				}
				JOINT lclavicle
				{
					OFFSET 0.071702 0.114000 -0.018898
					CHANNELS 3 Zrotation Yrotation Xrotation
					JOINT lshoulder
					{
						OFFSET 0.122921 0.045205 -0.019046
						CHANNELS 3 Zrotation Yrotation Xrotation
						JOINT lelbow
						{
							OFFSET 0.255332 -0.015649 -0.022946
							CHANNELS 3 Zrotation Yrotation Xrotation
							JOINT lwrist
							{
								OFFSET 0.265709 0.012698 -0.007375
								CHANNELS 3 Zrotation Yrotation Xrotation
								End Site
								{
									OFFSET 0.000000 0.000000 0.000000
								}
							}
						}
					}
				}
				JOINT rclavicle
				{
					OFFSET -0.082954 0.112472 -0.023707
					CHANNELS 3 Zrotation Yrotation Xrotation
					JOINT rshoulder
					{
						OFFSET -0.113228 0.046853 -0.008472
						CHANNELS 3 Zrotation Yrotation Xrotation
						JOINT relbow
						{
							OFFSET -0.260127 -0.014369 -0.031269
							CHANNELS 3 Zrotation Yrotation Xrotation
							JOINT rwrist
							{
								OFFSET -0.269108 0.006794 -0.006027
								CHANNELS 3 Zrotation Yrotation Xrotation
								End Site
								{
									OFFSET 0.000000 0.000000 0.000000
								}
							}
						}
					}
				}
			}
		}
	}
}
MOTION
Frames: 16
Frame Time: 0.033333
1.958078 0.622662 0.986555 -93.141172 2.062069 84.503119 3.170692 -2.514841 5.195292 -3.160223 -7.791877 10.451345 5.010892 9.867270 -18.125014 0.000000 -0.000000 0.000000 1.529337 -2.825686 6.020519 2.882218 -2.055386 8.460979 2.701590 -1.435964 -14.192624 0.000000 -0.000000 0.000000 -0.734810 4.564831 6.946594 2.182436 -0.773659 5.785388 0.270615 1.628329 2.231216 4.502854 -1.641946 16.074259 2.590655 -8.334674 19.946751 -23.519764 0.800070 3.932253 -67.236811 -10.043025 10.655517 17.241563 -26.966705 1.776555 2.101914 -7.262030 -7.053108 23.960489 1.549328 5.398239 66.865331 4.686235 10.213721 -19.847821 24.766337 2.119105 2.487399 3.731901 -1.019858 
1.958694 0.622529 0.986367 -92.989230 2.017030 84.534130 3.210632 -2.344574 5.006982 -3.130174 -7.519851 10.689559 4.024926 9.658599 -19.909156 0.000000 -0.000000 0.000000 1.496785 -2.354578 5.925269 3.088251 -2.774707 8.380800 2.982254 -1.854817 -13.835653 0.000000 -0.000000 0.000000 -1.012686 4.790674 6.785270 2.733748 -1.111806 6.069482 0.034862 1.585852 2.136678 5.659556 -0.774141 15.851590 1.709411 -9.687765 20.042216 -22.837224 0.008140 4.590608 -67.208474 -8.168229 13.728375 11.279574 -25.565857 15.687609 -9.277503 -9.946251 -2.818976 23.860969 1.261492 5.259664 66.870116 5.028705 10.082131 -20.144846 24.770731 3.623293 7.921550 3.605754 -2.359105 
1.959076 0.622126 0.986566 -92.733370 1.999932 84.352691 3.210989 -2.206220 5.039584 -3.133457 -7.731311 10.948931 2.895186 10.190718 -21.971421 0.000000 -0.000000 0.000000 1.418954 -2.491623 6.102267 3.202331 -3.112144 8.309705 3.171652 -1.966096 -13.542654 0.000000 -0.000000 0.000000 -0.958434 4.783872 7.031037 2.715794 -1.242253 5.887005 -0.006420 1.551108 2.306584 5.869376 -0.724139 15.540692 1.596006 -9.787216 20.330672 -23.009855 -0.089086 4.579011 -67.493683 -8.253643 13.814718 11.113866 -25.590097 16.028601 -9.325717 -9.975129 -2.529335 23.995354 1.123142 5.150794 66.835400 5.295887 9.921723 -20.089354 24.492635 3.547413 7.556689 3.860016 -1.757648 
1.959245 0.621709 0.986389 -92.846637 2.002445 84.351266 3.321881 -1.790105 5.141794 -3.137696 -7.679504 10.711094 2.808217 9.805289 -21.952409 0.000000 -0.000000 0.000000 1.379943 -2.568973 5.946643 3.364222 -3.211277 8.420916 3.136620 -2.226536 -13.395187 0.000000 -0.000000 0.000000 -0.888505 4.799091 6.894044 2.714087 -1.120637 5.837708 -0.038941 1.442376 2.295079 5.862728 -0.634937 15.382764 1.301227 -9.294358 20.705586 -23.191028 -0.456918 4.972455 -67.716790 -8.137414 14.171108 10.792437 -25.017381 17.438506 -5.513908 -10.890834 -0.831502 24.030393 1.188236 5.505426 66.641029 5.623050 9.688382 -19.595068 24.194331 3.014842 3.905348 4.899967 -1.817519 
1.959784 0.621436 0.986343 -92.827119 1.940816 84.435247 3.266076 -1.858277 5.066905 -3.158009 -7.626626 10.543185 2.803873 9.791601 -21.754762 0.000000 -0.000000 0.000000 1.317299 -2.433752 5.707533 3.344320 -3.387996 8.600790 3.160746 -2.142360 -13.356258 0.000000 -0.000000 0.000000 -0.933426 4.750686 6.822621 2.694449 -1.093131 5.960027 -0.060170 1.415665 2.122801 5.848658 -0.613625 15.409821 1.454244 -9.318005 20.724123 -23.277523 -0.474450 4.980853 -67.713618 -8.022024 14.149340 11.252871 -25.278654 17.265941 -7.806614 -10.378418 -0.447379 23.732783 1.216603 5.429717 66.938909 5.248877 9.829017 -19.476490 24.201162 3.440117 8.421618 3.310120 -4.203759 
1.960488 0.621048 0.986289 -92.763439 1.930214 84.492014 3.319207 -1.725455 5.052946 -3.211257 -7.694151 10.261009 2.766934 9.597974 -21.662248 0.000000 -0.000000 0.000000 1.325607 -2.409411 5.489120 3.309318 -3.370262 8.759317 3.213249 -2.205857 -13.410350 0.000000 -0.000000 0.000000 -0.982680 4.672955 6.738700 2.711643 -1.083497 6.010441 -0.031001 1.431943 2.198855 5.929052 -0.610471 15.296757 1.435051 -9.403274 20.778717 -23.229152 -0.365150 4.849089 -67.720240 -8.210428 14.171919 11.135467 -25.228456 17.301713 -7.838940 -10.382832 -0.252252 23.877842 1.170113 5.400316 66.634787 5.618589 9.654486 -19.135047 23.715261 3.345214 8.596551 3.870287 -3.713340 
1.961556 0.620657 0.986490 -92.394025 1.928474 84.444374 3.321895 -1.735050 4.965717 -3.220697 -7.957599 10.257219 2.826049 9.484434 -21.571158 0.000000 -0.000000 0.000000 1.320599 -2.562966 5.468387 3.312330 -3.381219 8.782585 3.143971 -2.468428 -13.486088 0.000000 -0.000000 0.000000 -0.940844 4.648187 7.058862 2.691379 -1.244681 5.658409 0.008962 1.302923 2.174526 5.848784 -0.383161 15.132912 1.411268 -8.979274 20.893229 -23.128590 -0.567279 5.085835 -67.553324 -8.374602 13.987783 10.814392 -25.133366 17.248920 -7.010367 -10.342105 -0.602504 23.861281 1.288141 5.477171 66.725206 5.564817 9.677431 -19.275107 23.788780 2.948643 6.443718 4.264267 -2.763475 
1.962624 0.620305 0.986772 -92.556064 1.903832 84.646801 3.361655 -1.722063 4.827746 -3.266119 -7.647463 9.940503 2.903646 9.247854 -21.369099 0.000000 -0.000000 0.000000 1.163981 -3.037616 4.903170 3.341770 -3.283167 9.213543 3.106516 -1.906470 -13.427327 0.000000 -0.000000 0.000000 -0.963107 4.792639 6.718951 2.719730 -1.235573 5.923094 -0.004102 1.285323 1.997379 5.844030 -0.335967 15.127168 1.448237 -8.834404 20.878044 -23.131113 -0.643305 5.166357 -67.272665 -8.406933 13.880456 11.032409 -25.207529 16.972652 -8.223782 -9.999423 -0.721833 23.865185 1.343360 5.566912 66.896480 5.519466 9.704682 -19.468816 23.543156 2.933625 8.639089 3.825258 -3.689344 
1.962415 0.620000 0.986939 -92.171503 1.795639 84.250593 3.176099 -1.777989 5.435158 -3.170051 -8.100915 9.562563 2.685181 9.310719 -21.258800 0.000000 -0.000000 0.000000 1.193487 -2.273358 5.635542 3.307296 -3.608106 8.748882 3.127798 -2.690959 -13.477185 0.000000 -0.000000 0.000000 -1.088959 4.553706 7.134782 2.709817 -1.270643 5.865767 0.045443 1.180790 2.180241 5.996792 -0.280612 15.016928 1.371881 -9.043745 20.737042 -22.946340 -0.652598 4.967060 -67.069751 -8.566209 13.774257 10.960685 -24.966103 16.769072 -8.344708 -10.260747 -0.924404 23.961631 1.337123 5.136550 67.008413 5.494052 9.817325 -19.620925 22.987171 2.489324 7.879726 3.826821 -3.371403 
1.962592 0.619947 0.986918 -92.073456 1.785712 84.133367 3.162599 -1.806996 5.794935 -3.126056 -8.244179 9.037347 2.708510 9.449294 -21.107842 0.000000 -0.000000 0.000000 1.251217 -1.901702 5.848467 3.314271 -3.636307 8.559974 3.036716 -3.129160 -13.472396 0.000000 -0.000000 0.000000 -1.149667 4.447171 7.285497 2.697192 -1.150955 5.714433 0.133476 1.148331 2.219552 6.021127 -0.052812 15.017730 1.332100 -8.687907 20.679424 -22.819624 -0.667014 5.127162 -66.846178 -8.729256 13.564354 10.969615 -25.103176 16.210354 -8.312946 -10.272067 -1.843206 24.025516 1.454160 5.274576 67.012734 5.513632 9.818162 -19.498836 22.684644 1.739968 6.257464 4.182827 -3.337352 
1.963176 0.619813 0.986911 -92.040871 1.789123 84.190478 3.224291 -1.800137 5.838075 -3.182933 -8.271453 8.711571 2.738882 9.450304 -20.994318 0.000000 -0.000000 0.000000 1.251201 -1.879478 5.697042 3.320218 -3.637948 8.662750 3.027413 -3.233916 -13.527552 0.000000 -0.000000 0.000000 -1.151871 4.405729 7.253978 2.696235 -1.099168 5.667569 0.125839 1.190664 2.198433 6.053985 -0.116936 15.142324 1.384164 -8.770769 20.684050 -22.791466 -0.598427 5.198431 -66.528640 -8.885245 13.464340 10.901187 -25.380356 15.801436 -8.359497 -10.224006 -2.391891 24.069716 1.478007 5.348749 66.968727 5.540136 9.844680 -19.386425 22.454447 1.523458 5.785392 4.146915 -3.375364 
1.964318 0.619422 0.986837 -92.038390 1.792157 84.437321 3.289362 -1.664435 5.471500 -3.265741 -8.207171 8.711610 2.811033 9.285025 -20.882711 0.000000 -0.000000 0.000000 1.157214 -2.156588 5.218412 3.339002 -3.610238 8.869221 3.126535 -2.965921 -13.553948 0.000000 -0.000000 0.000000 -1.151552 4.423233 7.072068 2.708202 -1.108642 5.703203 0.120642 1.263183 2.075509 6.011418 -0.197480 15.146418 1.450146 -8.844555 20.723778 -22.803211 -0.493151 5.138807 -66.316986 -8.959334 13.285261 11.065426 -25.675626 15.705081 -9.480482 -9.859634 -2.190675 24.097249 1.460995 5.536316 66.790534 5.628070 9.686117 -19.516566 22.443876 1.965384 8.055612 3.705568 -3.408812 
1.964436 0.618972 0.986898 -91.903872 1.745888 84.303057 3.205184 -1.637017 5.639733 -3.226948 -8.337456 8.587979 2.721841 9.182094 -20.871596 0.000000 -0.000000 0.000000 1.057378 -2.124928 5.436604 3.342058 -3.732392 8.759070 3.189878 -2.879976 -13.492393 0.000000 -0.000000 0.000000 -1.174511 4.378975 7.189140 2.696058 -1.171240 5.828672 0.157933 1.279784 1.961236 5.895328 -0.241120 15.138007 1.569509 -8.875151 20.685715 -22.863326 -0.664425 5.187346 -66.151765 -8.858891 12.999033 11.376464 -25.957705 15.217621 -10.267473 -9.629568 -1.810367 23.974252 1.602605 5.789035 66.775630 5.585830 9.469672 -19.813961 22.934664 2.073364 9.999692 3.438589 -3.530990 
1.965018 0.618541 0.986876 -91.900161 1.738279 84.251543 3.217976 -1.649871 5.763140 -3.269614 -8.330244 8.343663 2.753386 9.197915 -20.727696 0.000000 -0.000000 0.000000 0.998499 -2.210393 5.390669 3.321989 -3.783855 8.860505 3.267408 -2.816381 -13.457313 0.000000 -0.000000 0.000000 -1.192027 4.452225 7.231565 2.742541 -1.131780 5.896094 0.175442 1.340040 1.967172 5.997220 -0.268534 15.114537 1.542026 -9.095276 20.788377 -22.812539 -0.691945 5.071599 -66.135732 -9.069859 13.043842 11.369816 -25.752903 15.151092 -10.352331 -9.833215 -1.761122 23.948875 1.537786 5.616635 66.719520 5.530020 9.511119 -19.745985 22.957254 2.123960 9.928581 3.564007 -3.520430 
1.965773 0.618097 0.986780 -91.960454 1.793239 84.413970 3.283756 -1.705694 5.592121 -3.313466 -8.219032 8.182394 2.828296 9.259689 -20.678714 0.000000 -0.000000 0.000000 1.012565 -2.444141 4.994020 3.273853 -3.652594 9.127735 3.279036 -2.616047 -13.476760 0.000000 -0.000000 0.000000 -1.131227 4.567876 7.034589 2.805328 -1.116751 5.921407 0.157098 1.355624 2.045860 6.083671 -0.270494 15.042357 1.535878 -9.238394 20.760588 -22.756713 -0.633313 4.950933 -66.192811 -9.272902 13.209837 11.328516 -25.483139 15.269758 -9.953774 -10.076069 -1.896329 23.978625 1.421157 5.483478 66.620318 5.669689 9.539792 -19.630719 22.640679 2.249940 9.310912 3.815629 -3.353946 
1.965445 0.617560 0.986958 -91.777170 1.830067 84.119764 3.274001 -1.638797 5.727615 -3.304123 -8.362569 8.540622 2.726420 9.148005 -20.815414 0.000000 -0.000000 0.000000 1.080445 -2.080738 5.516420 3.303930 -3.844886 8.836775 3.245813 -3.009922 -13.442201 0.000000 -0.000000 0.000000 -1.065903 4.424794 7.326489 2.792543 -1.128536 5.848056 0.188777 1.323545 2.025776 6.032233 0.020551 14.848431 1.427980 -8.858139 20.936899 -22.709303 -0.691276 5.131562 -66.303943 -9.257632 13.010588 11.371147 -25.552751 15.369285 -9.785614 -10.050736 -1.884258 23.998972 1.549738 5.581567 66.714520 5.621834 9.479812 -20.069309 22.705891 2.171176 8.726629 3.782800 -2.715276 
